<?xml version="1.0" standalone="no"?>
<svg xmlns:xlink="http://www.w3.org/1999/xlink" id="wave" style="transform:rotate(0deg); transition: 0.3s" viewBox="0 0 1440 490" version="1.1" xmlns="http://www.w3.org/2000/svg"><defs><linearGradient id="sw-gradient-0" x1="0" x2="0" y1="1" y2="0"><stop stop-color="rgba(243, 106, 62, 1)" offset="0%"/><stop stop-color="rgba(255, 179, 11, 1)" offset="100%"/></linearGradient></defs><path style="transform:translate(0, 0px); opacity:1" fill="url(#sw-gradient-0)" d="M0,98L26.7,147C53.3,196,107,294,160,277.7C213.3,261,267,131,320,130.7C373.3,131,427,261,480,302.2C533.3,343,587,294,640,253.2C693.3,212,747,180,800,212.3C853.3,245,907,343,960,359.3C1013.3,376,1067,310,1120,310.3C1173.3,310,1227,376,1280,351.2C1333.3,327,1387,212,1440,163.3C1493.3,114,1547,131,1600,138.8C1653.3,147,1707,147,1760,155.2C1813.3,163,1867,180,1920,155.2C1973.3,131,2027,65,2080,57.2C2133.3,49,2187,98,2240,122.5C2293.3,147,2347,147,2400,187.8C2453.3,229,2507,310,2560,310.3C2613.3,310,2667,229,2720,220.5C2773.3,212,2827,278,2880,277.7C2933.3,278,2987,212,3040,204.2C3093.3,196,3147,245,3200,277.7C3253.3,310,3307,327,3360,294C3413.3,261,3467,180,3520,122.5C3573.3,65,3627,33,3680,32.7C3733.3,33,3787,65,3813,81.7L3840,98L3840,490L3813.3,490C3786.7,490,3733,490,3680,490C3626.7,490,3573,490,3520,490C3466.7,490,3413,490,3360,490C3306.7,490,3253,490,3200,490C3146.7,490,3093,490,3040,490C2986.7,490,2933,490,2880,490C2826.7,490,2773,490,2720,490C2666.7,490,2613,490,2560,490C2506.7,490,2453,490,2400,490C2346.7,490,2293,490,2240,490C2186.7,490,2133,490,2080,490C2026.7,490,1973,490,1920,490C1866.7,490,1813,490,1760,490C1706.7,490,1653,490,1600,490C1546.7,490,1493,490,1440,490C1386.7,490,1333,490,1280,490C1226.7,490,1173,490,1120,490C1066.7,490,1013,490,960,490C906.7,490,853,490,800,490C746.7,490,693,490,640,490C586.7,490,533,490,480,490C426.7,490,373,490,320,490C266.7,490,213,490,160,490C106.7,490,53,490,27,490L0,490Z"/><defs><linearGradient id="sw-gradient-1" x1="0" x2="0" y1="1" y2="0"><stop stop-color="rgba(243, 106, 62, 1)" offset="0%"/><stop stop-color="rgba(255, 179, 11, 1)" offset="100%"/></linearGradient></defs><path style="transform:translate(0, 50px); opacity:0.9" fill="url(#sw-gradient-1)" d="M0,441L26.7,392C53.3,343,107,245,160,212.3C213.3,180,267,212,320,220.5C373.3,229,427,212,480,187.8C533.3,163,587,131,640,122.5C693.3,114,747,131,800,138.8C853.3,147,907,147,960,171.5C1013.3,196,1067,245,1120,245C1173.3,245,1227,196,1280,212.3C1333.3,229,1387,310,1440,318.5C1493.3,327,1547,261,1600,236.8C1653.3,212,1707,229,1760,220.5C1813.3,212,1867,180,1920,138.8C1973.3,98,2027,49,2080,57.2C2133.3,65,2187,131,2240,171.5C2293.3,212,2347,229,2400,212.3C2453.3,196,2507,147,2560,163.3C2613.3,180,2667,261,2720,261.3C2773.3,261,2827,180,2880,155.2C2933.3,131,2987,163,3040,163.3C3093.3,163,3147,131,3200,122.5C3253.3,114,3307,131,3360,130.7C3413.3,131,3467,114,3520,147C3573.3,180,3627,261,3680,245C3733.3,229,3787,114,3813,57.2L3840,0L3840,490L3813.3,490C3786.7,490,3733,490,3680,490C3626.7,490,3573,490,3520,490C3466.7,490,3413,490,3360,490C3306.7,490,3253,490,3200,490C3146.7,490,3093,490,3040,490C2986.7,490,2933,490,2880,490C2826.7,490,2773,490,2720,490C2666.7,490,2613,490,2560,490C2506.7,490,2453,490,2400,490C2346.7,490,2293,490,2240,490C2186.7,490,2133,490,2080,490C2026.7,490,1973,490,1920,490C1866.7,490,1813,490,1760,490C1706.7,490,1653,490,1600,490C1546.7,490,1493,490,1440,490C1386.7,490,1333,490,1280,490C1226.7,490,1173,490,1120,490C1066.7,490,1013,490,960,490C906.7,490,853,490,800,490C746.7,490,693,490,640,490C586.7,490,533,490,480,490C426.7,490,373,490,320,490C266.7,490,213,490,160,490C106.7,490,53,490,27,490L0,490Z"/></svg>