<svg xmlns="http://www.w3.org/2000/svg" viewBox="0 0 1440 320"><path fill="#0099ff" fill-opacity="1" d="M0,224L30,224C60,224,120,224,180,234.7C240,245,300,267,360,256C420,245,480,203,540,197.3C600,192,660,224,720,229.3C780,235,840,213,900,208C960,203,1020,213,1080,224C1140,235,1200,245,1260,256C1320,267,1380,277,1410,282.7L1440,288L1440,0L1410,0C1380,0,1320,0,1260,0C1200,0,1140,0,1080,0C1020,0,960,0,900,0C840,0,780,0,720,0C660,0,600,0,540,0C480,0,420,0,360,0C300,0,240,0,180,0C120,0,60,0,30,0L0,0Z"></path></svg>